<mxfile host="app.diagrams.net" modified="2023-12-20T18:36:09.773Z" agent="Mozilla/5.0 (Windows NT 10.0; Win64; x64) AppleWebKit/537.36 (KHTML, like Gecko) Chrome/120.0.0.0 Safari/537.36 Edg/120.0.0.0" etag="MCwqgHQW2DYGkCpFDnf-" version="22.1.11" type="device">
  <diagram name="Страница — 1" id="HCXMn3qDRjwlWRF3Xgpu">
    <mxGraphModel dx="1158" dy="533" grid="0" gridSize="10" guides="1" tooltips="1" connect="1" arrows="1" fold="1" page="0" pageScale="1" pageWidth="827" pageHeight="1169" math="0" shadow="0">
      <root>
        <mxCell id="0" />
        <mxCell id="1" parent="0" />
        <mxCell id="H_fARyTlmyN6EmK6kvaK-3" style="rounded=0;orthogonalLoop=1;jettySize=auto;html=1;entryX=0.044;entryY=0.714;entryDx=0;entryDy=0;entryPerimeter=0;" parent="1" source="H_fARyTlmyN6EmK6kvaK-1" target="H_fARyTlmyN6EmK6kvaK-4" edge="1">
          <mxGeometry relative="1" as="geometry">
            <mxPoint x="152.00000000000068" y="292" as="targetPoint" />
          </mxGeometry>
        </mxCell>
        <mxCell id="H_fARyTlmyN6EmK6kvaK-1" value="Админ" style="shape=umlActor;verticalLabelPosition=bottom;verticalAlign=top;html=1;outlineConnect=0;" parent="1" vertex="1">
          <mxGeometry x="-65" y="246.25" width="51" height="91.5" as="geometry" />
        </mxCell>
        <mxCell id="H_fARyTlmyN6EmK6kvaK-7" value="" style="edgeStyle=orthogonalEdgeStyle;rounded=0;orthogonalLoop=1;jettySize=auto;html=1;startArrow=classic;startFill=1;endArrow=none;endFill=0;dashed=1;" parent="1" source="H_fARyTlmyN6EmK6kvaK-4" target="H_fARyTlmyN6EmK6kvaK-6" edge="1">
          <mxGeometry relative="1" as="geometry" />
        </mxCell>
        <mxCell id="H_fARyTlmyN6EmK6kvaK-9" style="rounded=0;orthogonalLoop=1;jettySize=auto;html=1;entryX=0.5;entryY=1;entryDx=0;entryDy=0;startArrow=classic;startFill=1;endArrow=none;endFill=0;dashed=1;" parent="1" source="H_fARyTlmyN6EmK6kvaK-4" target="H_fARyTlmyN6EmK6kvaK-8" edge="1">
          <mxGeometry relative="1" as="geometry" />
        </mxCell>
        <mxCell id="H_fARyTlmyN6EmK6kvaK-11" style="rounded=0;orthogonalLoop=1;jettySize=auto;html=1;entryX=0;entryY=0.5;entryDx=0;entryDy=0;startArrow=classic;startFill=1;endArrow=none;endFill=0;dashed=1;" parent="1" source="H_fARyTlmyN6EmK6kvaK-4" target="H_fARyTlmyN6EmK6kvaK-10" edge="1">
          <mxGeometry relative="1" as="geometry" />
        </mxCell>
        <mxCell id="H_fARyTlmyN6EmK6kvaK-4" value="Просмотр товаров" style="ellipse;whiteSpace=wrap;html=1;" parent="1" vertex="1">
          <mxGeometry x="152" y="177" width="89" height="46" as="geometry" />
        </mxCell>
        <mxCell id="H_fARyTlmyN6EmK6kvaK-6" value="Сортировка &lt;br&gt;товаров по&lt;br&gt;цене&amp;nbsp;" style="ellipse;whiteSpace=wrap;html=1;" parent="1" vertex="1">
          <mxGeometry x="137" y="44" width="119" height="64" as="geometry" />
        </mxCell>
        <mxCell id="H_fARyTlmyN6EmK6kvaK-8" value="Сортировка &lt;br&gt;товаров по&lt;br&gt;названию&amp;nbsp;" style="ellipse;whiteSpace=wrap;html=1;" parent="1" vertex="1">
          <mxGeometry x="-5" y="91" width="119" height="64" as="geometry" />
        </mxCell>
        <mxCell id="H_fARyTlmyN6EmK6kvaK-10" value="Поиск товаров по названию" style="ellipse;whiteSpace=wrap;html=1;" parent="1" vertex="1">
          <mxGeometry x="321" y="119" width="119" height="64" as="geometry" />
        </mxCell>
        <mxCell id="H_fARyTlmyN6EmK6kvaK-22" value="" style="edgeStyle=orthogonalEdgeStyle;rounded=0;orthogonalLoop=1;jettySize=auto;html=1;dashed=1;" parent="1" source="H_fARyTlmyN6EmK6kvaK-19" target="H_fARyTlmyN6EmK6kvaK-21" edge="1">
          <mxGeometry relative="1" as="geometry" />
        </mxCell>
        <mxCell id="H_fARyTlmyN6EmK6kvaK-30" value="" style="edgeStyle=orthogonalEdgeStyle;rounded=0;orthogonalLoop=1;jettySize=auto;html=1;dashed=1;" parent="1" source="H_fARyTlmyN6EmK6kvaK-19" target="H_fARyTlmyN6EmK6kvaK-29" edge="1">
          <mxGeometry relative="1" as="geometry" />
        </mxCell>
        <mxCell id="H_fARyTlmyN6EmK6kvaK-19" value="Вход в панель администратора" style="ellipse;whiteSpace=wrap;html=1;" parent="1" vertex="1">
          <mxGeometry x="312" y="263.5" width="128" height="57" as="geometry" />
        </mxCell>
        <mxCell id="H_fARyTlmyN6EmK6kvaK-21" value="Окно с товарами" style="ellipse;whiteSpace=wrap;html=1;" parent="1" vertex="1">
          <mxGeometry x="304" y="377.5" width="144" height="63" as="geometry" />
        </mxCell>
        <mxCell id="H_fARyTlmyN6EmK6kvaK-23" value="Удаление товара" style="ellipse;whiteSpace=wrap;html=1;" parent="1" vertex="1">
          <mxGeometry x="268" y="514" width="144" height="63" as="geometry" />
        </mxCell>
        <mxCell id="H_fARyTlmyN6EmK6kvaK-24" value="" style="endArrow=none;html=1;rounded=0;exitX=0.329;exitY=0.961;exitDx=0;exitDy=0;exitPerimeter=0;entryX=0.5;entryY=0;entryDx=0;entryDy=0;startArrow=classic;startFill=1;endFill=0;dashed=1;" parent="1" source="H_fARyTlmyN6EmK6kvaK-21" target="H_fARyTlmyN6EmK6kvaK-23" edge="1">
          <mxGeometry width="50" height="50" relative="1" as="geometry">
            <mxPoint x="394" y="522" as="sourcePoint" />
            <mxPoint x="444" y="472" as="targetPoint" />
          </mxGeometry>
        </mxCell>
        <mxCell id="H_fARyTlmyN6EmK6kvaK-25" value="Редактирование информации о товаре" style="ellipse;whiteSpace=wrap;html=1;" parent="1" vertex="1">
          <mxGeometry x="464" y="477" width="144" height="63" as="geometry" />
        </mxCell>
        <mxCell id="H_fARyTlmyN6EmK6kvaK-26" value="" style="endArrow=none;html=1;rounded=0;entryX=0.097;entryY=0.201;entryDx=0;entryDy=0;entryPerimeter=0;exitX=0.764;exitY=0.928;exitDx=0;exitDy=0;exitPerimeter=0;startArrow=classic;startFill=1;endFill=0;dashed=1;" parent="1" source="H_fARyTlmyN6EmK6kvaK-21" target="H_fARyTlmyN6EmK6kvaK-25" edge="1">
          <mxGeometry width="50" height="50" relative="1" as="geometry">
            <mxPoint x="416" y="428" as="sourcePoint" />
            <mxPoint x="491" y="360" as="targetPoint" />
          </mxGeometry>
        </mxCell>
        <mxCell id="H_fARyTlmyN6EmK6kvaK-27" value="Добавление товаров" style="ellipse;whiteSpace=wrap;html=1;" parent="1" vertex="1">
          <mxGeometry x="543" y="394" width="144" height="63" as="geometry" />
        </mxCell>
        <mxCell id="H_fARyTlmyN6EmK6kvaK-28" value="" style="endArrow=none;html=1;rounded=0;exitX=1;exitY=0.5;exitDx=0;exitDy=0;entryX=0;entryY=0.5;entryDx=0;entryDy=0;startArrow=classic;startFill=1;endFill=0;dashed=1;" parent="1" source="H_fARyTlmyN6EmK6kvaK-21" target="H_fARyTlmyN6EmK6kvaK-27" edge="1">
          <mxGeometry width="50" height="50" relative="1" as="geometry">
            <mxPoint x="467" y="337" as="sourcePoint" />
            <mxPoint x="517" y="287" as="targetPoint" />
          </mxGeometry>
        </mxCell>
        <mxCell id="H_fARyTlmyN6EmK6kvaK-32" value="" style="edgeStyle=orthogonalEdgeStyle;rounded=0;orthogonalLoop=1;jettySize=auto;html=1;startArrow=classic;startFill=1;endArrow=none;endFill=0;dashed=1;" parent="1" source="H_fARyTlmyN6EmK6kvaK-29" target="H_fARyTlmyN6EmK6kvaK-31" edge="1">
          <mxGeometry relative="1" as="geometry" />
        </mxCell>
        <mxCell id="H_fARyTlmyN6EmK6kvaK-35" value="" style="edgeStyle=orthogonalEdgeStyle;rounded=0;orthogonalLoop=1;jettySize=auto;html=1;startArrow=classic;startFill=1;endArrow=none;endFill=0;dashed=1;" parent="1" source="H_fARyTlmyN6EmK6kvaK-29" target="H_fARyTlmyN6EmK6kvaK-33" edge="1">
          <mxGeometry relative="1" as="geometry" />
        </mxCell>
        <mxCell id="H_fARyTlmyN6EmK6kvaK-29" value="Панель категорий" style="ellipse;whiteSpace=wrap;html=1;" parent="1" vertex="1">
          <mxGeometry x="521" y="263.5" width="128" height="57" as="geometry" />
        </mxCell>
        <mxCell id="H_fARyTlmyN6EmK6kvaK-31" value="Добавление новой категории" style="ellipse;whiteSpace=wrap;html=1;" parent="1" vertex="1">
          <mxGeometry x="521" y="135.5" width="128" height="57" as="geometry" />
        </mxCell>
        <mxCell id="H_fARyTlmyN6EmK6kvaK-33" value="Удаление категорий по названию" style="ellipse;whiteSpace=wrap;html=1;" parent="1" vertex="1">
          <mxGeometry x="719" y="263.5" width="128" height="57" as="geometry" />
        </mxCell>
        <mxCell id="B0Z55abynOzvybW5elFT-1" style="rounded=0;orthogonalLoop=1;jettySize=auto;html=1;entryX=0;entryY=1;entryDx=0;entryDy=0;" parent="1" source="B0Z55abynOzvybW5elFT-2" edge="1">
          <mxGeometry relative="1" as="geometry">
            <mxPoint x="-79.04452565689803" y="590.2228989092619" as="targetPoint" />
          </mxGeometry>
        </mxCell>
        <mxCell id="B0Z55abynOzvybW5elFT-2" value="Клиент" style="shape=umlActor;verticalLabelPosition=bottom;verticalAlign=top;html=1;outlineConnect=0;" parent="1" vertex="1">
          <mxGeometry x="-309" y="620.25" width="51" height="91.75" as="geometry" />
        </mxCell>
        <mxCell id="B0Z55abynOzvybW5elFT-75" value="" style="edgeStyle=orthogonalEdgeStyle;rounded=0;orthogonalLoop=1;jettySize=auto;html=1;endArrow=none;endFill=0;startArrow=classic;startFill=1;dashed=1;" parent="1" target="B0Z55abynOzvybW5elFT-74" edge="1">
          <mxGeometry relative="1" as="geometry">
            <mxPoint x="-47.5" y="597.0000000000002" as="sourcePoint" />
          </mxGeometry>
        </mxCell>
        <mxCell id="B0Z55abynOzvybW5elFT-68" value="" style="rounded=0;orthogonalLoop=1;jettySize=auto;html=1;elbow=vertical;exitX=1;exitY=0.5;exitDx=0;exitDy=0;startArrow=classic;startFill=1;endArrow=none;endFill=0;dashed=1;" parent="1" source="B0Z55abynOzvybW5elFT-17" target="B0Z55abynOzvybW5elFT-67" edge="1">
          <mxGeometry relative="1" as="geometry" />
        </mxCell>
        <mxCell id="B0Z55abynOzvybW5elFT-17" value="Корзина" style="ellipse;whiteSpace=wrap;html=1;" parent="1" vertex="1">
          <mxGeometry x="-96.5" y="803" width="98" height="47" as="geometry" />
        </mxCell>
        <mxCell id="B0Z55abynOzvybW5elFT-73" style="rounded=0;orthogonalLoop=1;jettySize=auto;html=1;startArrow=classic;startFill=1;endArrow=none;endFill=0;dashed=1;" parent="1" source="B0Z55abynOzvybW5elFT-18" target="B0Z55abynOzvybW5elFT-72" edge="1">
          <mxGeometry relative="1" as="geometry" />
        </mxCell>
        <mxCell id="B0Z55abynOzvybW5elFT-18" value="Оформление заказа" style="ellipse;whiteSpace=wrap;html=1;" parent="1" vertex="1">
          <mxGeometry x="-108.5" y="913" width="122" height="67" as="geometry" />
        </mxCell>
        <mxCell id="B0Z55abynOzvybW5elFT-67" value="Очистка корзины" style="ellipse;whiteSpace=wrap;html=1;" parent="1" vertex="1">
          <mxGeometry x="65" y="838" width="123" height="48" as="geometry" />
        </mxCell>
        <mxCell id="B0Z55abynOzvybW5elFT-71" value="" style="edgeStyle=orthogonalEdgeStyle;rounded=0;orthogonalLoop=1;jettySize=auto;html=1;exitX=0.5;exitY=1;exitDx=0;exitDy=0;startArrow=classic;startFill=1;endArrow=none;endFill=0;dashed=1;" parent="1" source="B0Z55abynOzvybW5elFT-17" target="B0Z55abynOzvybW5elFT-18" edge="1">
          <mxGeometry relative="1" as="geometry">
            <mxPoint x="-47.5" y="953" as="sourcePoint" />
          </mxGeometry>
        </mxCell>
        <mxCell id="B0Z55abynOzvybW5elFT-72" value="Оставить отзыв о товаре" style="ellipse;whiteSpace=wrap;html=1;" parent="1" vertex="1">
          <mxGeometry x="51" y="994" width="155" height="73" as="geometry" />
        </mxCell>
        <mxCell id="B0Z55abynOzvybW5elFT-76" value="" style="edgeStyle=orthogonalEdgeStyle;rounded=0;orthogonalLoop=1;jettySize=auto;html=1;startArrow=classic;startFill=1;endArrow=none;endFill=0;dashed=1;" parent="1" source="B0Z55abynOzvybW5elFT-74" target="B0Z55abynOzvybW5elFT-17" edge="1">
          <mxGeometry relative="1" as="geometry" />
        </mxCell>
        <mxCell id="B0Z55abynOzvybW5elFT-74" value="Выбор необходимого количества товаров" style="ellipse;whiteSpace=wrap;html=1;" parent="1" vertex="1">
          <mxGeometry x="-124.5" y="654" width="154" height="77" as="geometry" />
        </mxCell>
        <mxCell id="B0Z55abynOzvybW5elFT-77" value="" style="endArrow=classic;html=1;rounded=0;entryX=0;entryY=0.5;entryDx=0;entryDy=0;" parent="1" target="H_fARyTlmyN6EmK6kvaK-19" edge="1">
          <mxGeometry width="50" height="50" relative="1" as="geometry">
            <mxPoint x="-11" y="279" as="sourcePoint" />
            <mxPoint x="177" y="321" as="targetPoint" />
          </mxGeometry>
        </mxCell>
        <mxCell id="B0Z55abynOzvybW5elFT-78" value="Панель просмотра статуса заказа и доставки" style="ellipse;whiteSpace=wrap;html=1;" parent="1" vertex="1">
          <mxGeometry x="95" y="310" width="185" height="67.5" as="geometry" />
        </mxCell>
        <mxCell id="B0Z55abynOzvybW5elFT-79" value="" style="endArrow=classic;html=1;rounded=0;entryX=0.014;entryY=0.357;entryDx=0;entryDy=0;entryPerimeter=0;" parent="1" target="B0Z55abynOzvybW5elFT-78" edge="1">
          <mxGeometry width="50" height="50" relative="1" as="geometry">
            <mxPoint x="-10" y="279" as="sourcePoint" />
            <mxPoint x="20" y="392" as="targetPoint" />
          </mxGeometry>
        </mxCell>
        <mxCell id="B0Z55abynOzvybW5elFT-84" value="" style="edgeStyle=orthogonalEdgeStyle;rounded=0;orthogonalLoop=1;jettySize=auto;html=1;" parent="1" source="B0Z55abynOzvybW5elFT-80" target="B0Z55abynOzvybW5elFT-82" edge="1">
          <mxGeometry relative="1" as="geometry" />
        </mxCell>
        <mxCell id="B0Z55abynOzvybW5elFT-80" value="Курьер" style="shape=umlActor;verticalLabelPosition=bottom;verticalAlign=top;html=1;outlineConnect=0;" parent="1" vertex="1">
          <mxGeometry x="177" y="610" width="51" height="91.75" as="geometry" />
        </mxCell>
        <mxCell id="B0Z55abynOzvybW5elFT-86" value="" style="edgeStyle=orthogonalEdgeStyle;rounded=0;orthogonalLoop=1;jettySize=auto;html=1;" parent="1" source="B0Z55abynOzvybW5elFT-82" target="B0Z55abynOzvybW5elFT-85" edge="1">
          <mxGeometry relative="1" as="geometry" />
        </mxCell>
        <mxCell id="B0Z55abynOzvybW5elFT-82" value="Панель просмотра статуса заказа и доставки" style="ellipse;whiteSpace=wrap;html=1;" parent="1" vertex="1">
          <mxGeometry x="328" y="622.13" width="185" height="67.5" as="geometry" />
        </mxCell>
        <mxCell id="B0Z55abynOzvybW5elFT-85" value="Изменение статуса заказа&lt;br&gt;(доставлен)" style="ellipse;whiteSpace=wrap;html=1;" parent="1" vertex="1">
          <mxGeometry x="336" y="735.75" width="169" height="57" as="geometry" />
        </mxCell>
        <mxCell id="bA-9ahs714HjzUbv6Nh0-1" value="&amp;lt;&amp;lt;extend&amp;gt;&amp;gt;" style="text;html=1;align=center;verticalAlign=middle;resizable=0;points=[];autosize=1;strokeColor=none;fillColor=none;rotation=20;" parent="1" vertex="1">
          <mxGeometry x="76" y="151" width="82" height="26" as="geometry" />
        </mxCell>
        <mxCell id="bA-9ahs714HjzUbv6Nh0-2" value="&amp;lt;&amp;lt;extend&amp;gt;&amp;gt;" style="text;html=1;align=center;verticalAlign=middle;resizable=0;points=[];autosize=1;strokeColor=none;fillColor=none;rotation=90;" parent="1" vertex="1">
          <mxGeometry x="166" y="125" width="82" height="26" as="geometry" />
        </mxCell>
        <mxCell id="bA-9ahs714HjzUbv6Nh0-3" value="&amp;lt;&amp;lt;extend&amp;gt;&amp;gt;" style="text;html=1;align=center;verticalAlign=middle;resizable=0;points=[];autosize=1;strokeColor=none;fillColor=none;rotation=-15;" parent="1" vertex="1">
          <mxGeometry x="233" y="145" width="82" height="26" as="geometry" />
        </mxCell>
        <mxCell id="bA-9ahs714HjzUbv6Nh0-4" value="&amp;lt;&amp;lt;include&amp;gt;&amp;gt;" style="text;html=1;align=center;verticalAlign=middle;resizable=0;points=[];autosize=1;strokeColor=none;fillColor=none;rotation=90;" parent="1" vertex="1">
          <mxGeometry x="347" y="334" width="84" height="26" as="geometry" />
        </mxCell>
        <mxCell id="bA-9ahs714HjzUbv6Nh0-5" value="&amp;lt;&amp;lt;include&amp;gt;&amp;gt;" style="text;html=1;align=center;verticalAlign=middle;resizable=0;points=[];autosize=1;strokeColor=none;fillColor=none;rotation=0;" parent="1" vertex="1">
          <mxGeometry x="434" y="268.25" width="84" height="26" as="geometry" />
        </mxCell>
        <mxCell id="bA-9ahs714HjzUbv6Nh0-6" value="&amp;lt;&amp;lt;extend&amp;gt;&amp;gt;" style="text;html=1;align=center;verticalAlign=middle;resizable=0;points=[];autosize=1;strokeColor=none;fillColor=none;rotation=15;" parent="1" vertex="1">
          <mxGeometry x="462" y="389" width="82" height="26" as="geometry" />
        </mxCell>
        <mxCell id="bA-9ahs714HjzUbv6Nh0-7" value="&amp;lt;&amp;lt;extend&amp;gt;&amp;gt;" style="text;html=1;align=center;verticalAlign=middle;resizable=0;points=[];autosize=1;strokeColor=none;fillColor=none;rotation=45;" parent="1" vertex="1">
          <mxGeometry x="417" y="444" width="82" height="26" as="geometry" />
        </mxCell>
        <mxCell id="bA-9ahs714HjzUbv6Nh0-8" value="&amp;lt;&amp;lt;extend&amp;gt;&amp;gt;" style="text;html=1;align=center;verticalAlign=middle;resizable=0;points=[];autosize=1;strokeColor=none;fillColor=none;rotation=90;" parent="1" vertex="1">
          <mxGeometry x="321" y="466" width="82" height="26" as="geometry" />
        </mxCell>
        <mxCell id="bA-9ahs714HjzUbv6Nh0-9" value="&amp;lt;&amp;lt;extend&amp;gt;&amp;gt;" style="text;html=1;align=center;verticalAlign=middle;resizable=0;points=[];autosize=1;strokeColor=none;fillColor=none;rotation=90;" parent="1" vertex="1">
          <mxGeometry x="554" y="209" width="82" height="26" as="geometry" />
        </mxCell>
        <mxCell id="bA-9ahs714HjzUbv6Nh0-10" value="&amp;lt;&amp;lt;extend&amp;gt;&amp;gt;" style="text;html=1;align=center;verticalAlign=middle;resizable=0;points=[];autosize=1;strokeColor=none;fillColor=none;" parent="1" vertex="1">
          <mxGeometry x="648" y="268.25" width="82" height="26" as="geometry" />
        </mxCell>
        <mxCell id="bA-9ahs714HjzUbv6Nh0-21" value="" style="edgeStyle=orthogonalEdgeStyle;rounded=0;orthogonalLoop=1;jettySize=auto;html=1;startArrow=classic;startFill=1;endArrow=none;endFill=0;dashed=1;" parent="1" source="bA-9ahs714HjzUbv6Nh0-24" target="bA-9ahs714HjzUbv6Nh0-25" edge="1">
          <mxGeometry relative="1" as="geometry" />
        </mxCell>
        <mxCell id="bA-9ahs714HjzUbv6Nh0-22" style="rounded=0;orthogonalLoop=1;jettySize=auto;html=1;entryX=0.5;entryY=1;entryDx=0;entryDy=0;startArrow=classic;startFill=1;endArrow=none;endFill=0;dashed=1;" parent="1" source="bA-9ahs714HjzUbv6Nh0-24" target="bA-9ahs714HjzUbv6Nh0-26" edge="1">
          <mxGeometry relative="1" as="geometry" />
        </mxCell>
        <mxCell id="bA-9ahs714HjzUbv6Nh0-23" style="rounded=0;orthogonalLoop=1;jettySize=auto;html=1;entryX=0;entryY=0.5;entryDx=0;entryDy=0;startArrow=classic;startFill=1;endArrow=none;endFill=0;dashed=1;" parent="1" source="bA-9ahs714HjzUbv6Nh0-24" target="bA-9ahs714HjzUbv6Nh0-27" edge="1">
          <mxGeometry relative="1" as="geometry" />
        </mxCell>
        <mxCell id="bA-9ahs714HjzUbv6Nh0-24" value="Просмотр товаров" style="ellipse;whiteSpace=wrap;html=1;" parent="1" vertex="1">
          <mxGeometry x="-89" y="552" width="89" height="46" as="geometry" />
        </mxCell>
        <mxCell id="bA-9ahs714HjzUbv6Nh0-25" value="Сортировка &lt;br&gt;товаров по&lt;br&gt;цене&amp;nbsp;" style="ellipse;whiteSpace=wrap;html=1;" parent="1" vertex="1">
          <mxGeometry x="-104" y="419" width="119" height="64" as="geometry" />
        </mxCell>
        <mxCell id="bA-9ahs714HjzUbv6Nh0-26" value="Сортировка &lt;br&gt;товаров по&lt;br&gt;названию&amp;nbsp;" style="ellipse;whiteSpace=wrap;html=1;" parent="1" vertex="1">
          <mxGeometry x="-246" y="466" width="119" height="64" as="geometry" />
        </mxCell>
        <mxCell id="bA-9ahs714HjzUbv6Nh0-27" value="Поиск товаров по названию" style="ellipse;whiteSpace=wrap;html=1;" parent="1" vertex="1">
          <mxGeometry x="80" y="494" width="119" height="64" as="geometry" />
        </mxCell>
        <mxCell id="bA-9ahs714HjzUbv6Nh0-28" value="&amp;lt;&amp;lt;extend&amp;gt;&amp;gt;" style="text;html=1;align=center;verticalAlign=middle;resizable=0;points=[];autosize=1;strokeColor=none;fillColor=none;rotation=20;" parent="1" vertex="1">
          <mxGeometry x="-165" y="526" width="82" height="26" as="geometry" />
        </mxCell>
        <mxCell id="bA-9ahs714HjzUbv6Nh0-29" value="&amp;lt;&amp;lt;extend&amp;gt;&amp;gt;" style="text;html=1;align=center;verticalAlign=middle;resizable=0;points=[];autosize=1;strokeColor=none;fillColor=none;rotation=90;" parent="1" vertex="1">
          <mxGeometry x="-75" y="500" width="82" height="26" as="geometry" />
        </mxCell>
        <mxCell id="bA-9ahs714HjzUbv6Nh0-30" value="&amp;lt;&amp;lt;extend&amp;gt;&amp;gt;" style="text;html=1;align=center;verticalAlign=middle;resizable=0;points=[];autosize=1;strokeColor=none;fillColor=none;rotation=-15;" parent="1" vertex="1">
          <mxGeometry x="-8" y="520" width="82" height="26" as="geometry" />
        </mxCell>
        <mxCell id="bA-9ahs714HjzUbv6Nh0-31" value="&amp;lt;&amp;lt;extend&amp;gt;&amp;gt;" style="text;html=1;align=center;verticalAlign=middle;resizable=0;points=[];autosize=1;strokeColor=none;fillColor=none;rotation=90;" parent="1" vertex="1">
          <mxGeometry x="-71" y="613" width="82" height="26" as="geometry" />
        </mxCell>
        <mxCell id="bA-9ahs714HjzUbv6Nh0-32" value="&amp;lt;&amp;lt;extend&amp;gt;&amp;gt;" style="text;html=1;align=center;verticalAlign=middle;resizable=0;points=[];autosize=1;strokeColor=none;fillColor=none;rotation=90;" parent="1" vertex="1">
          <mxGeometry x="-75" y="751" width="82" height="26" as="geometry" />
        </mxCell>
        <mxCell id="bA-9ahs714HjzUbv6Nh0-33" value="&amp;lt;&amp;lt;extend&amp;gt;&amp;gt;" style="text;html=1;align=center;verticalAlign=middle;resizable=0;points=[];autosize=1;strokeColor=none;fillColor=none;rotation=90;" parent="1" vertex="1">
          <mxGeometry x="-75" y="867" width="82" height="26" as="geometry" />
        </mxCell>
        <mxCell id="bA-9ahs714HjzUbv6Nh0-34" value="&amp;lt;&amp;lt;extend&amp;gt;&amp;gt;" style="text;html=1;align=center;verticalAlign=middle;resizable=0;points=[];autosize=1;strokeColor=none;fillColor=none;rotation=15;" parent="1" vertex="1">
          <mxGeometry x="-3" y="809" width="82" height="26" as="geometry" />
        </mxCell>
        <mxCell id="bA-9ahs714HjzUbv6Nh0-36" value="&amp;lt;&amp;lt;extend&amp;gt;&amp;gt;" style="text;html=1;align=center;verticalAlign=middle;resizable=0;points=[];autosize=1;strokeColor=none;fillColor=none;rotation=30;" parent="1" vertex="1">
          <mxGeometry y="957" width="82" height="26" as="geometry" />
        </mxCell>
      </root>
    </mxGraphModel>
  </diagram>
</mxfile>
